<svg width="16" height="17" viewBox="0 0 16 17" fill="none" xmlns="http://www.w3.org/2000/svg">
<path d="M7.99976 16.5C7.79961 16.5 7.632 16.4323 7.49694 16.2969C7.36173 16.1617 7.29412 15.9941 7.29412 15.7941V9.20588H0.705882C0.505882 9.20588 0.338275 9.1382 0.203059 9.00282C0.0676864 8.86745 0 8.69977 0 8.49976C0 8.29961 0.0676864 8.132 0.203059 7.99694C0.338275 7.86173 0.505882 7.79412 0.705882 7.79412H7.29412V1.20588C7.29412 1.00588 7.3618 0.838275 7.49718 0.703059C7.63255 0.567686 7.80024 0.5 8.00024 0.5C8.20039 0.5 8.368 0.567686 8.50306 0.703059C8.63827 0.838275 8.70588 1.00588 8.70588 1.20588V7.79412H15.2941C15.4941 7.79412 15.6617 7.8618 15.7969 7.99718C15.9323 8.13255 16 8.30024 16 8.50024C16 8.70039 15.9323 8.868 15.7969 9.00306C15.6617 9.13827 15.4941 9.20588 15.2941 9.20588H8.70588V15.7941C8.70588 15.9941 8.6382 16.1617 8.50282 16.2969C8.36745 16.4323 8.19977 16.5 7.99976 16.5Z" fill="#FFDEBC"/>
</svg>
