<svg width="25" height="24" viewBox="0 0 25 24" fill="none" xmlns="http://www.w3.org/2000/svg">
<path d="M7.63999 16.539C6.25145 15.5598 5.21074 14.1639 4.66862 12.5537C4.12651 10.9434 4.11115 9.20234 4.62479 7.58276C5.13842 5.96318 6.15435 4.54919 7.52541 3.54565C8.89646 2.54212 10.5514 2.00116 12.2505 2.00116C13.9496 2.00116 15.6045 2.54212 16.9756 3.54565C18.3466 4.54919 19.3626 5.96318 19.8762 7.58276C20.3898 9.20234 20.3745 10.9434 19.8324 12.5537C19.2902 14.1639 18.2495 15.5598 16.861 16.539L18.944 21.299C18.9774 21.3752 18.9913 21.4585 18.9844 21.5415C18.9775 21.6244 18.9501 21.7043 18.9045 21.7739C18.8589 21.8435 18.7967 21.9007 18.7234 21.9401C18.6501 21.9796 18.5682 22.0002 18.485 22H6.01499C5.9319 22.0001 5.8501 21.9795 5.77697 21.9401C5.70383 21.9007 5.64168 21.8436 5.59612 21.7742C5.55056 21.7047 5.52303 21.6249 5.51603 21.5422C5.50902 21.4594 5.52275 21.3761 5.55599 21.3L7.63999 16.539ZM14.375 15.846L15.707 14.905C16.7487 14.1708 17.5296 13.124 17.9365 11.9162C18.3434 10.7085 18.3551 9.40253 17.97 8.18765C17.5849 6.97277 16.823 5.91207 15.7946 5.15927C14.7663 4.40646 13.5249 4.00065 12.2505 4.00065C10.976 4.00065 9.73469 4.40646 8.70634 5.15927C7.67799 5.91207 6.91605 6.97277 6.53096 8.18765C6.14586 9.40253 6.15761 10.7085 6.56449 11.9162C6.97138 13.124 7.75226 14.1708 8.79399 14.905L10.125 15.846L8.30799 20H16.192L14.375 15.846ZM8.73098 11.8993C8.4681 11.4139 8.80353 10.8614 9.33902 10.7275C9.87449 10.5936 10.4041 10.9501 10.7777 11.3564C10.8512 11.4364 10.9315 11.5107 11.018 11.5783C11.3698 11.8534 11.8035 12.0028 12.25 12.0028C12.6965 12.0028 13.1302 11.8534 13.482 11.5783C13.5685 11.5107 13.6488 11.4364 13.7223 11.3564C14.0959 10.9501 14.6255 10.5936 15.161 10.7275C15.6964 10.8614 16.0319 11.4139 15.769 11.8993C15.5078 12.3815 15.1486 12.8081 14.7104 13.1497C14.0074 13.6977 13.1414 13.9953 12.25 13.9953C11.3585 13.9953 10.4926 13.6977 9.78956 13.1497C9.35142 12.8081 8.99217 12.3815 8.73098 11.8993Z" fill="#FFDEBC"/>
</svg>
