<svg width="25" height="24" viewBox="0 0 25 24" fill="none" xmlns="http://www.w3.org/2000/svg">
<path d="M12.4001 13.76L13.7334 14.7917C13.9153 14.938 14.1081 14.9425 14.3118 14.8051C14.5155 14.6676 14.5798 14.4847 14.5046 14.2563L13.9673 12.5579L15.5078 11.3661C15.6827 11.2198 15.7326 11.0387 15.6574 10.8227C15.5822 10.6065 15.4305 10.4984 15.2022 10.4984H13.4297L12.8555 8.74267C12.7803 8.51422 12.6285 8.4 12.4001 8.4C12.1716 8.4 12.0198 8.51422 11.9446 8.74267L11.3705 10.4984H9.57126C9.34299 10.4984 9.19401 10.6065 9.12432 10.8227C9.05446 11.0387 9.10708 11.2198 9.28219 11.3661L10.7795 12.5579L10.2422 14.2933C10.167 14.5216 10.2241 14.7045 10.4134 14.8421C10.6027 14.9796 10.7938 14.9751 10.9867 14.8288L12.4001 13.76ZM4.19499 20C3.66308 20 3.20868 19.8116 2.83179 19.4349C2.45508 19.058 2.26672 18.6036 2.26672 18.0717V15.1488C2.26672 14.9737 2.31703 14.8185 2.41766 14.6832C2.5181 14.5477 2.65241 14.4554 2.82059 14.4061C3.28832 14.1887 3.6685 13.866 3.96112 13.4379C4.25375 13.01 4.40006 12.5307 4.40006 12C4.40006 11.4693 4.25375 10.99 3.96112 10.5621C3.6685 10.134 3.28832 9.81129 2.82059 9.59387C2.65241 9.54462 2.5181 9.45227 2.41766 9.3168C2.31703 9.18151 2.26672 9.02631 2.26672 8.8512V5.92827C2.26672 5.39636 2.45508 4.94196 2.83179 4.56507C3.20868 4.18836 3.66308 4 4.19499 4H20.6051C21.137 4 21.5914 4.18836 21.9683 4.56507C22.345 4.94196 22.5334 5.39636 22.5334 5.92827V8.8512C22.5334 9.02631 22.4831 9.18151 22.3825 9.3168C22.282 9.45227 22.1477 9.54462 21.9795 9.59387C21.5118 9.81129 21.1316 10.134 20.839 10.5621C20.5464 10.99 20.4001 11.4693 20.4001 12C20.4001 12.5307 20.5464 13.01 20.839 13.4379C21.1316 13.866 21.5118 14.1887 21.9795 14.4061C22.1477 14.4554 22.282 14.5477 22.3825 14.6832C22.4831 14.8185 22.5334 14.9737 22.5334 15.1488V18.0717C22.5334 18.6036 22.345 19.058 21.9683 19.4349C21.5914 19.8116 21.137 20 20.6051 20H4.19499ZM4.19499 18.4H20.6051C20.7009 18.4 20.7796 18.3692 20.8411 18.3077C20.9026 18.2462 20.9334 18.1676 20.9334 18.0717V15.68C20.2756 15.2889 19.7556 14.7689 19.3734 14.12C18.9912 13.4711 18.8001 12.7644 18.8001 12C18.8001 11.2356 18.9912 10.5289 19.3734 9.88C19.7556 9.23111 20.2756 8.71111 20.9334 8.32V5.92827C20.9334 5.83244 20.9026 5.75378 20.8411 5.69227C20.7796 5.63076 20.7009 5.6 20.6051 5.6H4.19499C4.09917 5.6 4.0205 5.63076 3.95899 5.69227C3.89748 5.75378 3.86672 5.83244 3.86672 5.92827V8.32C4.5245 8.71111 5.0445 9.23111 5.42672 9.88C5.80895 10.5289 6.00006 11.2356 6.00006 12C6.00006 12.7644 5.80895 13.4711 5.42672 14.12C5.0445 14.7689 4.5245 15.2889 3.86672 15.68V18.0717C3.86672 18.1676 3.89748 18.2462 3.95899 18.3077C4.0205 18.3692 4.09917 18.4 4.19499 18.4Z" fill="#FFDEBC"/>
</svg>
