<svg width="23" height="22" viewBox="0 0 23 22" fill="none" xmlns="http://www.w3.org/2000/svg">
<path d="M2.54688 8.14244V5.21387C2.54688 3.83315 3.66616 2.71387 5.04687 2.71387H11.5945M2.54688 13.571V16.4996C2.54688 17.8803 3.66616 18.9996 5.04688 18.9996H16.3326C17.7133 18.9996 18.8326 17.8803 18.8326 16.4996V8.14244" stroke="white" stroke-width="1.5" stroke-linecap="round"/>
<path d="M16.96 6.87565L19.3307 4.50487C19.8981 3.93749 19.8981 3.01759 19.3307 2.4502C18.7634 1.88282 17.8435 1.88282 17.2761 2.4502L16.8809 2.84533L16.4858 2.4502C15.9184 1.88282 14.9985 1.88282 14.4311 2.4502C13.8638 3.01759 13.8638 3.93749 14.4311 4.50487L16.8019 6.87565C16.8456 6.91929 16.9163 6.91929 16.96 6.87565Z" stroke="white" stroke-width="1.5"/>
<path d="M2.54688 10.8573H4.84449C5.10679 10.8573 5.35378 10.7338 5.51116 10.524L7.4502 7.93861C7.66071 7.65793 8.10267 7.74718 8.18776 8.08755L9.57265 13.6271C9.65775 13.9675 10.0997 14.0567 10.3102 13.7761L12.2493 11.1907C12.4066 10.9808 12.6536 10.8573 12.9159 10.8573H16.1183" stroke="white" stroke-width="1.5" stroke-linecap="round" stroke-linejoin="round"/>
</svg>
